<svg width="60" height="62" viewBox="0 0 60 62" fill="none" xmlns="http://www.w3.org/2000/svg">
<path d="M43.2216 21.2511C42.0325 19.3813 39.9638 18.5591 37.957 18.1569C36.1477 17.7949 34.2684 18.1313 32.6969 19.0984C31.6134 19.7348 30.3819 20.0762 29.1254 20.0886H28.48C27.2234 20.0762 25.992 19.7348 24.9084 19.0984C23.3371 18.1225 21.4539 17.7797 19.6395 18.1392C17.6327 18.5591 15.564 19.3813 14.375 21.2334C12.2798 24.5265 12.7085 29.3976 14.786 32.5625C15.182 33.2754 15.337 34.0971 15.2281 34.9053C15.15 36.0499 15.1338 37.1979 15.1795 38.3442C15.2159 39.79 15.3637 41.2309 15.6215 42.654C16.0635 45.0895 16.9962 47.5162 18.7775 49.218C19.218 49.6369 19.7043 50.0047 20.2274 50.3143C21.6861 51.1762 23.295 50.3717 23.9625 48.8291C24.3283 47.8205 24.5268 46.7589 24.5504 45.6863C24.7493 43.3258 25.5229 41.1245 28.0424 40.824C28.1808 40.8152 28.3195 40.8152 28.4579 40.824C28.5654 40.8174 28.6731 40.8174 28.7806 40.824C28.8866 40.8174 28.9929 40.8174 29.0988 40.824C29.246 40.8143 29.3937 40.8143 29.5409 40.824C32.056 41.1069 32.8295 43.3082 33.0284 45.6863C33.0542 46.7586 33.2527 47.8199 33.6163 48.8291C34.2882 50.3717 35.8928 51.1762 37.3515 50.3143C37.8752 50.0058 38.3617 49.6379 38.8013 49.218C40.5694 47.5251 41.4977 45.0895 41.9618 42.654C42.2152 41.2302 42.3629 39.7897 42.4038 38.3442C42.4458 37.1977 42.4281 36.0499 42.3508 34.9053C42.244 34.0972 42.3989 33.2761 42.7928 32.5625C44.8924 29.4153 45.3168 24.5442 43.2216 21.2511Z" fill="white"/>
<path d="M41.1169 45.8494C39.119 46.6538 36.9177 45.9024 35.9983 44.4614C35.4148 43.5508 35.3175 42.5253 35.1938 41.5263C34.9241 39.3162 33.8677 37.2652 30.4111 37C30.221 37 30.0265 37 29.8364 37C29.6464 37 29.5447 37 29.3944 37C29.2441 37 29.1027 37 28.9524 37C28.8021 37 28.5678 37 28.3777 37C24.9299 37.2652 23.8647 39.3206 23.595 41.5263C23.4713 42.5253 23.3696 43.5508 22.7905 44.4614C21.8711 45.9024 19.6698 46.6715 17.6719 45.8494C17.442 45.7565 17.2299 45.6549 17 45.5532C17.5002 47.023 18.3549 48.3469 19.4886 49.4077C19.9271 49.8028 20.4091 50.1468 20.9252 50.4332C22.3706 51.2376 23.9575 50.4862 24.6249 49.0496C24.9838 48.1099 25.1796 47.1158 25.204 46.1101C25.3985 43.9 26.1676 41.849 28.6562 41.5882C28.7946 41.5795 28.9334 41.5795 29.0717 41.5882C29.1777 41.5816 29.284 41.5816 29.39 41.5882C29.4945 41.5817 29.5993 41.5817 29.7038 41.5882C29.8422 41.5793 29.981 41.5793 30.1193 41.5882C32.6123 41.849 33.377 43.9089 33.576 46.1101C33.6003 47.1158 33.7962 48.1099 34.155 49.0496C34.818 50.4862 36.4093 51.2597 37.8548 50.4332C38.3709 50.1468 38.8528 49.8028 39.2913 49.4077C40.425 48.3469 41.2798 47.023 41.78 45.5532C41.5678 45.6549 41.3468 45.7565 41.1169 45.8494Z" fill="#06B1CD" fill-opacity="0.4"/>
<path d="M28.6691 22.1287C32.1479 22.1287 35.105 20.1793 36.1836 17.4697C34.9007 17.5001 33.6452 17.8463 32.528 18.4775C31.4451 19.0763 30.2293 19.394 28.9918 19.4014H28.3641C27.1267 19.394 25.9109 19.0763 24.8279 18.4775C23.7075 17.8533 22.4504 17.5147 21.168 17.4918C22.2333 20.1793 25.186 22.1287 28.6691 22.1287Z" fill="#06B1CD" fill-opacity="0.4"/>
<path d="M44.187 10.3867L47.3917 9.29489C47.4432 9.27789 47.486 9.2414 47.511 9.19323L48.8106 5.27246L50.0482 9.17997C50.0748 9.2259 50.1172 9.26051 50.1676 9.27721L53.39 10.3469C53.4321 10.3611 53.4687 10.3881 53.4946 10.4242C53.5206 10.4603 53.5346 10.5036 53.5346 10.548C53.5346 10.5925 53.5206 10.6358 53.4946 10.6719C53.4687 10.708 53.4321 10.735 53.39 10.7492L50.1853 11.8321C50.1362 11.849 50.0952 11.8837 50.0703 11.9294L48.8106 15.8634L47.5508 11.9515C47.5243 11.9055 47.4818 11.8709 47.4315 11.8542L44.2135 10.7845C44.1717 10.7724 44.1347 10.7477 44.1074 10.7137C44.0801 10.6798 44.0639 10.6383 44.061 10.5949C44.0581 10.5515 44.0687 10.5082 44.0912 10.4709C44.1137 10.4337 44.1472 10.4043 44.187 10.3867Z" fill="#06B1CD" fill-opacity="0.4"/>
<path d="M51.0772 3.43387L53 2.77967C53.0299 2.76771 53.0549 2.74587 53.0707 2.71779L53.8354 0.366211L54.5913 2.71337C54.6081 2.73958 54.6329 2.75972 54.662 2.77083L56.5936 3.43387C56.6191 3.4424 56.6413 3.45873 56.657 3.48054C56.6727 3.50235 56.6811 3.52855 56.6811 3.55543C56.6811 3.5823 56.6727 3.6085 56.657 3.63031C56.6413 3.65212 56.6191 3.66845 56.5936 3.67698L54.6753 4.31792C54.6596 4.3224 54.6452 4.33027 54.633 4.34097C54.6208 4.35166 54.611 4.36492 54.6045 4.3798L53.8354 6.73138L53.084 4.38864C53.0665 4.36118 53.0399 4.34081 53.0088 4.33118L51.0816 3.69024C51.0648 3.69053 51.048 3.6875 51.0324 3.68133C51.0167 3.67516 51.0024 3.66596 50.9903 3.65426C50.9782 3.64256 50.9685 3.62859 50.9618 3.61315C50.9551 3.59771 50.9515 3.5811 50.9512 3.56426C50.9509 3.54743 50.9539 3.5307 50.9601 3.51504C50.9663 3.49938 50.9755 3.48508 50.9872 3.47298C50.9989 3.46087 51.0128 3.45118 51.0283 3.44447C51.0437 3.43776 51.0603 3.43416 51.0772 3.43387Z" fill="#06B1CD" fill-opacity="0.4"/>
<path d="M44.0636 20.8184C42.8746 18.9486 40.8059 18.1265 38.7991 17.7242C36.9898 17.3618 35.1103 17.6982 33.539 18.6657C32.454 19.3027 31.2211 19.6441 29.963 19.6559H29.3265C28.0699 19.6435 26.8385 19.3022 25.7549 18.6657C24.1835 17.6986 22.3042 17.3622 20.4948 17.7242C18.488 18.1442 16.4193 18.9663 15.2303 20.8184C13.1351 24.1115 13.5594 28.9826 15.6591 32.1652C16.0529 32.8788 16.2078 33.6999 16.1011 34.5079C16.0237 35.6526 16.006 36.8004 16.048 37.9469C16.0889 39.3924 16.2367 40.8329 16.4901 42.2566C16.9321 44.6922 17.8692 47.1189 19.6461 48.8207C20.0881 49.2397 20.5759 49.6074 21.1004 49.9169C22.5591 50.7789 24.1636 49.9744 24.8355 48.4317C25.1992 47.4226 25.3977 46.3613 25.4234 45.2889C25.6223 42.9285 26.3959 40.7272 28.911 40.4267C29.0582 40.417 29.2058 40.417 29.353 40.4267C29.459 40.42 29.5653 40.42 29.6713 40.4267C29.7773 40.4201 29.8835 40.4201 29.9895 40.4267C30.1367 40.4168 30.2844 40.4168 30.4316 40.4267C32.9511 40.7096 33.7247 42.9108 33.9236 45.2889C33.9471 46.3616 34.1457 47.4231 34.5115 48.4317C35.1789 49.9744 36.7835 50.7789 38.2421 49.9169C38.7673 49.6084 39.2552 49.2406 39.6964 48.8207C41.4645 47.1278 42.3884 44.6922 42.8525 42.2566C43.1102 40.8335 43.258 39.3927 43.2945 37.9469C43.338 36.8005 43.3218 35.6526 43.2459 34.5079C43.1391 33.6999 43.2941 32.8788 43.6879 32.1652C45.7168 28.9826 46.1588 24.1115 44.0636 20.8184Z" stroke="white" stroke-width="0.5" stroke-miterlimit="10"/>
<path d="M45.248 10.3867L48.4527 9.29489C48.5042 9.27789 48.5471 9.2414 48.5721 9.19323L49.8495 5.27246L51.1093 9.17997C51.1358 9.2259 51.1783 9.26051 51.2286 9.27721L54.451 10.3469C54.4931 10.3611 54.5297 10.3881 54.5557 10.4242C54.5816 10.4603 54.5956 10.5036 54.5956 10.548C54.5956 10.5925 54.5816 10.6358 54.5557 10.6719C54.5297 10.708 54.4931 10.735 54.451 10.7492L51.2463 11.8321C51.1972 11.849 51.1562 11.8837 51.1314 11.9294L49.8495 15.8546L48.5897 11.9426C48.5632 11.8967 48.5207 11.8621 48.4704 11.8454L45.2745 10.7889C45.2313 10.7778 45.1926 10.7533 45.1641 10.7189C45.1356 10.6845 45.1186 10.642 45.1157 10.5974C45.1128 10.5528 45.124 10.5085 45.1477 10.4706C45.1715 10.4328 45.2066 10.4034 45.248 10.3867Z" stroke="white" stroke-width="0.2" stroke-miterlimit="10"/>
<path d="M52.1377 3.43387L54.0605 2.77967C54.0905 2.76771 54.1154 2.74587 54.1312 2.71779L54.896 0.366211L55.6518 2.71337C55.6687 2.73958 55.6934 2.75972 55.7225 2.77083L57.6498 3.43387C57.6753 3.4424 57.6974 3.45873 57.7131 3.48054C57.7288 3.50235 57.7373 3.52855 57.7373 3.55543C57.7373 3.5823 57.7288 3.6085 57.7131 3.63031C57.6974 3.65212 57.6753 3.66845 57.6498 3.67698L55.7358 4.31792C55.7202 4.3224 55.7058 4.33027 55.6935 4.34097C55.6813 4.35166 55.6716 4.36492 55.6651 4.3798L54.896 6.73138L54.1445 4.38864C54.1271 4.36118 54.1004 4.34081 54.0694 4.33118L52.1421 3.69024C52.1081 3.69083 52.0753 3.67789 52.0509 3.65426C52.0264 3.63063 52.0123 3.59826 52.0117 3.56426C52.0112 3.53027 52.0241 3.49743 52.0477 3.47298C52.0713 3.44852 52.1037 3.43445 52.1377 3.43387Z" stroke="white" stroke-width="0.2" stroke-miterlimit="10"/>
<path d="M54.3973 16.9826C58.1331 22.9784 59.5582 30.1292 58.4065 37.0991C57.2548 44.069 53.605 50.3812 48.1389 54.8564C42.6729 59.3317 35.7645 61.664 28.7044 61.4175C21.6443 61.1709 14.9155 58.3625 9.77489 53.5169C4.6343 48.6713 1.43366 42.1199 0.770882 35.0866C0.108108 28.0534 2.02854 21.0194 6.17342 15.2988C10.3183 9.57814 16.4041 5.56216 23.2938 4.00108C30.1836 2.44001 37.406 3.44063 43.6119 6.81602" stroke="white" stroke-width="0.5" stroke-linecap="round" stroke-linejoin="round"/>
</svg>
