<svg width="46" height="58" viewBox="0 0 46 58" fill="none" xmlns="http://www.w3.org/2000/svg">
<path d="M42.3724 20.2768C45.2524 16.1287 45.845 9.78793 42.965 5.49164C41.3176 3.05016 38.4554 1.97755 35.6762 1.42644C33.1818 0.951703 30.6 1.38692 28.3991 2.65311C26.8848 3.48881 25.1864 3.93479 23.4569 3.95089H22.5621C20.8307 3.93503 19.1303 3.48907 17.6139 2.65311C15.4131 1.38692 12.8312 0.951703 10.3369 1.42644C7.55766 1.97755 4.69545 3.05016 3.04804 5.49164C0.150264 9.78793 0.742856 16.1583 3.64063 20.2768" fill="white"/>
<path d="M42.3724 20.2768C45.2524 16.1287 45.845 9.78793 42.965 5.49164C41.3176 3.05016 38.4554 1.97755 35.6762 1.42644C33.1818 0.951703 30.6 1.38692 28.3991 2.65311C26.8848 3.48881 25.1864 3.93479 23.4569 3.95089H22.5621C20.8307 3.93503 19.1303 3.48907 17.6139 2.65311C15.4131 1.38692 12.8312 0.951703 10.3369 1.42644C7.55766 1.97755 4.69545 3.05016 3.04804 5.49164C0.150264 9.78793 0.742856 16.1583 3.64063 20.2768" stroke="white" stroke-width="0.5" stroke-miterlimit="10" stroke-linecap="round"/>
<path d="M23.3143 8.34814C28.8076 8.34814 33.4654 5.27852 35.1661 1C33.1429 1.04776 31.1626 1.59321 29.4002 2.58814C27.6955 3.53462 25.7796 4.03601 23.8298 4.04593H22.8343C20.8864 4.03527 18.9727 3.5339 17.2698 2.58814C15.5075 1.59321 13.5271 1.04776 11.5039 1C13.1691 5.27852 17.8209 8.34814 23.3143 8.34814Z" fill="#06B1CD" fill-opacity="0.4"/>
<path d="M33.6788 30.3451H33.1514L36.8077 22.0488L5.0625 22.4992L8.75436 30.2859H8.23879C7.85687 30.2859 7.49061 30.4376 7.22056 30.7076C6.9505 30.9777 6.79879 31.344 6.79879 31.7259C6.79879 32.1078 6.9505 32.474 7.22056 32.7441C7.49061 33.0141 7.85687 33.1659 8.23879 33.1659H10.1173L11.8477 36.8044H11.0655C10.6836 36.8044 10.3173 36.9561 10.0472 37.2262C9.77718 37.4962 9.62547 37.8625 9.62547 38.2444C9.62547 38.6263 9.77718 38.9926 10.0472 39.2626C10.3173 39.5327 10.6836 39.6844 11.0655 39.6844H13.2284L14.9529 43.311H13.7677C13.3858 43.311 13.0195 43.4628 12.7495 43.7328C12.4794 44.0029 12.3277 44.3691 12.3277 44.7511C12.3277 45.133 12.4794 45.4992 12.7495 45.7693C13.0195 46.0393 13.3858 46.191 13.7677 46.191H16.3455L18.1232 49.9718H16.8136C16.4317 49.9718 16.0654 50.1235 15.7954 50.3936C15.5253 50.6636 15.3736 51.0299 15.3736 51.4118C15.3736 51.7937 15.5253 52.16 15.7954 52.43C16.0654 52.7001 16.4317 52.8518 16.8136 52.8518H19.4743L21.4358 56.9999L23.2432 52.8518H25.7499C26.1318 52.8518 26.4981 52.7001 26.7681 52.43C27.0382 52.16 27.1899 51.7937 27.1899 51.4118C27.1899 51.0299 27.0382 50.6636 26.7681 50.3936C26.4981 50.1235 26.1318 49.9718 25.7499 49.9718H24.4995L26.1588 46.2029H28.8847C29.2499 46.1794 29.5924 46.0178 29.8427 45.7509C30.0931 45.484 30.2324 45.1318 30.2324 44.7659C30.2324 44.3999 30.0931 44.0477 29.8427 43.7808C29.5924 43.5139 29.2499 43.3523 28.8847 43.3288H27.4329L29.0269 39.7081H31.8477C32.2296 39.7081 32.5959 39.5564 32.8659 39.2863C33.136 39.0163 33.2877 38.65 33.2877 38.2681C33.2877 37.8862 33.136 37.5199 32.8659 37.2498C32.5959 36.9798 32.2296 36.8281 31.8477 36.8281H30.2654L31.8595 33.1955H33.6729C34.038 33.172 34.3806 33.0104 34.6309 32.7435C34.8812 32.4766 35.0205 32.1244 35.0205 31.7585C35.0205 31.3925 34.8812 31.0403 34.6309 30.7734C34.3806 30.5065 34.038 30.3449 33.6729 30.3214L33.6788 30.3451Z" fill="#06B1CD" fill-opacity="0.4"/>
<path d="M18.5137 6.92558C22.3886 6.80835 26.0674 5.19411 28.7774 2.42188" stroke="white" stroke-width="0.5" stroke-miterlimit="10" stroke-linecap="round"/>
<path d="M35.7217 30.3451H35.1884L38.8447 22.0488L7.10547 22.4992L10.7973 30.2859H10.2758C9.89391 30.2859 9.52765 30.4376 9.25759 30.7076C8.98754 30.9777 8.83583 31.344 8.83583 31.7259C8.83583 32.1078 8.98754 32.474 9.25759 32.7441C9.52765 33.0141 9.89391 33.1659 10.2758 33.1659H12.1721L13.8966 36.8044H13.0788C12.6969 36.8044 12.3306 36.9561 12.0606 37.2262C11.7905 37.4962 11.6388 37.8625 11.6388 38.2444C11.6388 38.6263 11.7905 38.9926 12.0606 39.2626C12.3306 39.5327 12.6969 39.6844 13.0788 39.6844H15.2417L16.9603 43.311H15.7751C15.3932 43.311 15.0269 43.4628 14.7568 43.7328C14.4868 44.0029 14.3351 44.3691 14.3351 44.7511C14.3351 45.133 14.4868 45.4992 14.7568 45.7693C15.0269 46.0393 15.3932 46.191 15.7751 46.191H18.3529L20.1306 49.9718H18.8447C18.4628 49.9718 18.0965 50.1235 17.8265 50.3936C17.5564 50.6636 17.4047 51.0299 17.4047 51.4118C17.4047 51.7937 17.5564 52.16 17.8265 52.43C18.0965 52.7001 18.4628 52.8518 18.8447 52.8518H21.5055L23.4669 56.9999L25.2803 52.8518H27.7869C28.1688 52.8518 28.5351 52.7001 28.8052 52.43C29.0752 52.16 29.2269 51.7937 29.2269 51.4118C29.2269 51.0299 29.0752 50.6636 28.8052 50.3936C28.5351 50.1235 28.1688 49.9718 27.7869 49.9718H26.5425L28.1958 46.2029H30.9277C31.2928 46.1794 31.6354 46.0178 31.8857 45.7509C32.136 45.484 32.2753 45.1318 32.2753 44.7659C32.2753 44.3999 32.136 44.0477 31.8857 43.7808C31.6354 43.5139 31.2928 43.3523 30.9277 43.3288H29.4817L31.0758 39.7081H33.8966C34.2785 39.7081 34.6447 39.5564 34.9148 39.2863C35.1848 39.0163 35.3366 38.65 35.3366 38.2681C35.3366 37.8862 35.1848 37.5199 34.9148 37.2498C34.6447 36.9798 34.2785 36.8281 33.8966 36.8281H32.3558L33.9558 33.1955H35.7691C36.1343 33.172 36.4769 33.0104 36.7272 32.7435C36.9775 32.4766 37.1168 32.1244 37.1168 31.7585C37.1168 31.3925 36.9775 31.0403 36.7272 30.7734C36.4769 30.5065 36.1343 30.3449 35.7691 30.3214L35.7217 30.3451Z" stroke="white" stroke-width="0.5" stroke-linejoin="round"/>
<path d="M12.1621 33.1484L34.4673 33.2196" stroke="white" stroke-width="0.5" stroke-miterlimit="10"/>
<path d="M31.2696 39.7261L15.2637 39.6787" stroke="white" stroke-width="0.5" stroke-miterlimit="10"/>
<path d="M17.9688 46.1904L28.8132 46.2201" stroke="white" stroke-width="0.5" stroke-miterlimit="10"/>
<path d="M25.7209 52.8635L19.9609 52.8457" stroke="white" stroke-width="0.5" stroke-miterlimit="10"/>
</svg>
