<svg width="53" height="65" viewBox="0 0 53 65" fill="none" xmlns="http://www.w3.org/2000/svg">
<path d="M23.9304 1.50549C17.601 8.13819 4.8173 13.0625 1.06159 14.4096C0.750476 14.5203 0.481329 14.7247 0.29121 14.9947C0.10109 15.2647 -0.000652274 15.587 3.14684e-06 15.9172V35.2265C3.14684e-06 44.6425 5.41054 53.452 14.4563 58.7733L24.3139 64.3979C24.5565 64.5339 24.8299 64.6053 25.1079 64.6053C25.386 64.6053 25.6593 64.5339 25.9019 64.3979L35.7595 58.7956C44.8053 53.4743 50.2158 44.6649 50.2158 35.2488V15.8994C50.2165 15.5692 50.1147 15.2469 49.9246 14.9769C49.7345 14.7069 49.4653 14.5024 49.1542 14.3917C45.3985 13.0447 32.6149 8.12034 26.281 1.50549C26.1297 1.34581 25.9475 1.21864 25.7454 1.13173C25.5433 1.04482 25.3256 1 25.1057 1C24.8857 1 24.668 1.04482 24.466 1.13173C24.2639 1.21864 24.0817 1.34581 23.9304 1.50549Z" fill="#06B1CD" fill-opacity="0.4"/>
<path d="M39.832 21.2788C38.6321 19.392 36.5446 18.5624 34.5196 18.1565C32.6938 17.7911 30.7973 18.1306 29.2116 19.1065C28.1182 19.7487 26.8756 20.0932 25.6076 20.1057H24.943C23.6855 20.0816 22.4558 19.7312 21.3746 19.0887C19.789 18.1123 17.8925 17.7728 16.0667 18.1386C14.0416 18.5624 11.9541 19.392 10.7543 21.2609C8.64 24.584 9.07266 29.4994 11.1735 32.6931C11.5706 33.4117 11.7269 34.2387 11.6196 35.0527C11.5378 36.209 11.5185 37.3689 11.5616 38.5273C11.5984 39.9863 11.7475 41.4402 12.0076 42.8763C12.476 45.334 13.3948 47.7828 15.1924 49.5001C15.6376 49.9237 16.13 50.2949 16.6599 50.6063C18.1318 51.476 19.751 50.6642 20.4245 49.1075C20.7936 48.0898 20.994 47.0185 21.0178 45.9362C21.2185 43.5543 21.9991 41.333 24.5415 41.0297C24.6811 41.0208 24.8212 41.0208 24.9608 41.0297C25.0692 41.023 25.178 41.023 25.2864 41.0297C25.3934 41.023 25.5006 41.023 25.6076 41.0297C25.7487 41.0209 25.8902 41.0209 26.0313 41.0297C28.5693 41.3151 29.3499 43.5364 29.5506 45.9362C29.5766 47.0183 29.7769 48.0892 30.1439 49.1075C30.8218 50.6642 32.441 51.476 33.9129 50.6063C34.4422 50.2939 34.9344 49.9228 35.3804 49.5001C37.1646 47.7917 38.0968 45.334 38.5652 42.8763C38.8209 41.4396 38.97 39.986 39.0112 38.5273C39.0536 37.369 39.0357 36.2092 38.9577 35.0527C38.8503 34.2387 39.0067 33.4117 39.4038 32.6931C41.518 29.5172 41.9462 24.6018 39.832 21.2788Z" fill="white"/>
<path d="M37.1116 46.0207C35.091 46.8325 32.8742 46.0742 31.9464 44.6201C31.3577 43.7013 31.2595 42.6664 31.1346 41.6584C30.8581 39.4281 29.7965 37.3585 26.3084 37.0953C26.1153 37.0843 25.9217 37.0843 25.7286 37.0953C25.5814 37.0953 25.4342 37.0953 25.2825 37.0953C25.1309 37.0953 24.9881 37.0953 24.8365 37.0953C24.6433 37.0841 24.4497 37.0841 24.2566 37.0953C20.773 37.3585 19.7025 39.4326 19.4259 41.6584C19.3055 42.6664 19.2029 43.7013 18.6186 44.6201C17.6908 46.0742 15.4695 46.8503 13.4534 46.0207C13.2214 45.927 13.0073 45.8244 12.7754 45.7218C13.2794 47.2066 14.142 48.5441 15.2866 49.6158C15.7296 50.0127 16.2159 50.3583 16.7363 50.6462C18.1948 51.4624 19.7961 50.6997 20.4652 49.2501C20.8273 48.3016 21.0264 47.2987 21.054 46.2839C21.2503 44.0536 22.0264 41.984 24.5376 41.7208C24.6772 41.712 24.8173 41.712 24.9569 41.7208C25.0639 41.7208 25.171 41.7208 25.278 41.7208C25.3851 41.7208 25.4877 41.7208 25.5947 41.7208C25.7344 41.7119 25.8744 41.7119 26.014 41.7208C28.5297 41.984 29.3014 44.0626 29.5021 46.2839C29.526 47.2987 29.7236 48.302 30.0864 49.2501C30.7555 50.6997 32.3613 51.4803 33.8154 50.6462C34.3365 50.3573 34.8242 50.0117 35.2695 49.6158C36.4127 48.543 37.275 47.2058 37.7807 45.7218C37.5666 45.8244 37.3436 45.927 37.1116 46.0207Z" fill="#BAD7F5"/>
<path d="M25.3074 22.6794C28.8178 22.6794 31.8018 20.7124 32.8902 17.9736C31.5959 18.0059 30.3293 18.3551 29.2014 18.9906C28.1089 19.5962 26.882 19.9183 25.633 19.9273H24.9862C23.7371 19.919 22.51 19.5969 21.4179 18.9906C20.2881 18.3556 19.0202 18.0065 17.7246 17.9736C18.813 20.7124 21.7925 22.6794 25.3074 22.6794Z" fill="#BAD7F5"/>
<path d="M30.0584 30.4495H27.6408C27.61 30.4496 27.5795 30.4434 27.551 30.4315C27.5226 30.4195 27.4968 30.4021 27.4752 30.38C27.4536 30.358 27.4366 30.3319 27.4253 30.3033C27.4139 30.2746 27.4083 30.244 27.4089 30.2131V27.8223C27.4089 27.7913 27.4028 27.7606 27.3909 27.7319C27.379 27.7032 27.3616 27.6771 27.3397 27.6552C27.3177 27.6332 27.2916 27.6158 27.263 27.6039C27.2343 27.5921 27.2035 27.5859 27.1725 27.5859H24.4695C24.4384 27.5859 24.4077 27.5921 24.379 27.6039C24.3503 27.6158 24.3243 27.6332 24.3023 27.6552C24.2803 27.6771 24.2629 27.7032 24.2511 27.7319C24.2392 27.7606 24.2331 27.7913 24.2331 27.8223V30.2354C24.2336 30.2663 24.2281 30.2969 24.2167 30.3256C24.2053 30.3542 24.1883 30.3803 24.1667 30.4023C24.1451 30.4244 24.1194 30.4418 24.0909 30.4538C24.0625 30.4657 24.032 30.4719 24.0011 30.4719H21.5835C21.522 30.4719 21.463 30.4963 21.4195 30.5398C21.376 30.5833 21.3516 30.6423 21.3516 30.7038V33.4068C21.351 33.4377 21.3566 33.4683 21.368 33.497C21.3793 33.5256 21.3963 33.5517 21.4179 33.5737C21.4395 33.5957 21.4653 33.6132 21.4937 33.6252C21.5222 33.6371 21.5527 33.6432 21.5835 33.6432H24.0011C24.0626 33.6432 24.1216 33.6677 24.1651 33.7112C24.2086 33.7547 24.2331 33.8137 24.2331 33.8752V36.2927C24.2331 36.3236 24.2392 36.3541 24.2511 36.3825C24.2631 36.411 24.2805 36.4368 24.3026 36.4584C24.3246 36.4799 24.3507 36.4969 24.3793 36.5083C24.408 36.5197 24.4386 36.5253 24.4695 36.5247H27.1725C27.2033 36.5253 27.234 36.5197 27.2626 36.5083C27.2913 36.4969 27.3174 36.4799 27.3394 36.4584C27.3614 36.4368 27.3789 36.411 27.3908 36.3825C27.4028 36.3541 27.4089 36.3236 27.4089 36.2927V33.8752C27.4089 33.8137 27.4333 33.7547 27.4768 33.7112C27.5203 33.6677 27.5793 33.6432 27.6408 33.6432H30.0584C30.0892 33.6432 30.1198 33.6371 30.1482 33.6252C30.1766 33.6132 30.2024 33.5957 30.224 33.5737C30.2456 33.5517 30.2626 33.5256 30.274 33.497C30.2854 33.4683 30.2909 33.4377 30.2903 33.4068V30.7038C30.2935 30.6715 30.2898 30.6389 30.2795 30.6082C30.2693 30.5774 30.2527 30.5491 30.2308 30.5252C30.209 30.5012 30.1823 30.4821 30.1526 30.4691C30.1229 30.4561 30.0908 30.4494 30.0584 30.4495Z" fill="white"/>
<path d="M23.4922 22.8359C26.28 22.4969 28.6619 21.5424 30.5486 19.2676" stroke="white" stroke-width="0.5" stroke-miterlimit="10" stroke-linecap="round"/>
<path d="M42.0922 21.2073C40.8388 19.3473 38.6577 18.531 36.5389 18.085C34.6383 17.7247 32.6714 18.057 30.9946 19.0217C29.8399 19.6594 28.5446 19.9997 27.2255 20.0119C27.114 20.0119 26.668 20.0119 26.552 20.0119C25.2343 19.9997 23.9405 19.6594 22.7874 19.0217C21.1104 18.0574 19.1437 17.7251 17.243 18.085C15.1243 18.531 12.9431 19.325 11.6898 21.2073C9.45953 24.4813 9.93233 29.3298 12.1358 32.4744C12.5408 33.1787 12.6979 33.9986 12.5818 34.8028C12.4994 35.9412 12.4815 37.0834 12.5283 38.2239C12.5735 39.6646 12.7331 41.0995 13.0056 42.5149C13.4962 44.9369 14.4597 47.3589 16.3375 49.0405C16.806 49.4596 17.3191 49.8261 17.8675 50.1333C19.4063 50.9897 21.0968 50.1869 21.8061 48.6569C22.1873 47.6587 22.3955 46.6028 22.4216 45.5346C22.6312 43.1839 23.452 40.9939 26.1015 40.7129C26.2487 40.7129 26.4003 40.7129 26.5475 40.7129C26.6947 40.7129 26.775 40.7129 26.8865 40.7129H27.221C27.3682 40.7129 27.5154 40.7129 27.6671 40.7129C30.3166 40.9939 31.1373 43.1839 31.347 45.5346C31.3731 46.6028 31.5812 47.6587 31.9625 48.6569C32.6717 50.1869 34.3622 50.9897 35.9011 50.1333C36.4495 49.8261 36.9625 49.4596 37.431 49.0405C39.3089 47.3589 40.2723 44.9369 40.763 42.5149C41.0355 41.0995 41.1951 39.6646 41.2403 38.2239C41.2871 37.0834 41.2692 35.9412 41.1867 34.8028C41.0707 33.9986 41.2278 33.1787 41.6328 32.4744C43.8496 29.3298 44.3001 24.4813 42.0922 21.2073Z" stroke="white" stroke-width="0.5" stroke-miterlimit="10"/>
<path d="M31.1287 30.4495H28.7112C28.6803 30.4496 28.6498 30.4434 28.6213 30.4315C28.5929 30.4195 28.5672 30.4021 28.5456 30.38C28.524 30.358 28.507 30.3319 28.4956 30.3033C28.4842 30.2746 28.4786 30.244 28.4792 30.2131V27.8223C28.4792 27.7913 28.4731 27.7606 28.4612 27.7319C28.4493 27.7032 28.4319 27.6771 28.41 27.6552C28.388 27.6332 28.362 27.6158 28.3333 27.6039C28.3046 27.5921 28.2739 27.5859 28.2428 27.5859H25.5398C25.5087 27.5859 25.478 27.5921 25.4493 27.6039C25.4206 27.6158 25.3946 27.6332 25.3726 27.6552C25.3507 27.6771 25.3332 27.7032 25.3214 27.7319C25.3095 27.7606 25.3034 27.7913 25.3034 27.8223V30.2354C25.304 30.2663 25.2984 30.2969 25.287 30.3256C25.2756 30.3542 25.2586 30.3803 25.237 30.4023C25.2154 30.4244 25.1897 30.4418 25.1612 30.4538C25.1328 30.4657 25.1023 30.4719 25.0714 30.4719H22.6539C22.5923 30.4719 22.5334 30.4963 22.4899 30.5398C22.4464 30.5833 22.4219 30.6423 22.4219 30.7038V33.4068C22.4213 33.4377 22.4269 33.4683 22.4383 33.497C22.4497 33.5256 22.4667 33.5517 22.4883 33.5737C22.5098 33.5957 22.5356 33.6132 22.5641 33.6252C22.5925 33.6371 22.623 33.6432 22.6539 33.6432H25.0714C25.1329 33.6432 25.1919 33.6677 25.2354 33.7112C25.2789 33.7547 25.3034 33.8137 25.3034 33.8752V36.2927C25.3034 36.3236 25.3095 36.3541 25.3214 36.3825C25.3334 36.411 25.3509 36.4368 25.3729 36.4584C25.3949 36.4799 25.421 36.4969 25.4496 36.5083C25.4783 36.5197 25.5089 36.5253 25.5398 36.5247H28.2428C28.2736 36.5253 28.3043 36.5197 28.3329 36.5083C28.3616 36.4969 28.3877 36.4799 28.4097 36.4584C28.4317 36.4368 28.4492 36.411 28.4611 36.3825C28.4731 36.3541 28.4792 36.3236 28.4792 36.2927V33.8752C28.4792 33.8137 28.5037 33.7547 28.5471 33.7112C28.5906 33.6677 28.6496 33.6432 28.7112 33.6432H31.1287C31.1596 33.6432 31.1901 33.6371 31.2185 33.6252C31.247 33.6132 31.2727 33.5957 31.2943 33.5737C31.3159 33.5517 31.3329 33.5256 31.3443 33.497C31.3557 33.4683 31.3613 33.4377 31.3607 33.4068V30.7038C31.3638 30.6715 31.3601 30.6389 31.3499 30.6082C31.3396 30.5774 31.323 30.5491 31.3011 30.5252C31.2793 30.5012 31.2527 30.4821 31.223 30.4691C31.1933 30.4561 31.1612 30.4494 31.1287 30.4495Z" stroke="#06B1CD" stroke-width="0.5" stroke-miterlimit="10"/>
<path d="M25.7155 1.50549C19.3861 8.13819 6.60245 13.0625 2.84675 14.4096C2.53563 14.5203 2.26649 14.7247 2.07637 14.9947C1.88625 15.2647 1.7845 15.587 1.78516 15.9172V35.2265C1.78516 44.6425 7.19569 53.452 16.2415 58.7733L26.0991 64.3979C26.3416 64.5339 26.615 64.6053 26.8931 64.6053C27.1711 64.6053 27.4445 64.5339 27.687 64.3979L37.5446 58.7956C46.5904 53.4743 52.001 44.6649 52.001 35.2488V15.8994C52.0016 15.5692 51.8999 15.2469 51.7098 14.9769C51.5196 14.7068 51.2505 14.5024 50.9394 14.3917C47.1837 13.0447 34.4 8.12034 28.0662 1.50549C27.9149 1.34581 27.7326 1.21864 27.5306 1.13173C27.3285 1.04482 27.1108 1 26.8908 1C26.6709 1 26.4532 1.04482 26.2511 1.13173C26.0491 1.21864 25.8668 1.34581 25.7155 1.50549Z" stroke="white" stroke-width="0.5" stroke-miterlimit="10"/>
</svg>
