<svg width="59" height="94" viewBox="0 0 59 94" fill="none" xmlns="http://www.w3.org/2000/svg">
<path d="M46.4198 79.1828C44.9501 80.8363 38.234 83.1839 34.7841 83.9596C38.5811 83.7146 43.2966 83.4084 46.8485 81.02C47.5766 80.5305 49.4447 78.7323 48.8694 77.7743C48.502 77.1623 47.0322 76.9173 46.4198 77.1622C45.9299 77.6522 47.8209 77.6066 46.4198 79.1828Z" fill="white"/>
<path d="M53.0081 48.5845C51.3485 44.6627 48.2857 44.3156 47.9359 46.1181C47.8504 47.888 48.7754 48.3189 47.9359 50.6715C47.0963 53.0241 36.4505 56.9009 31.2325 58.5451L34.031 58.5451L37.6165 58.3554C46.799 56.6479 54.8759 52.9983 53.0081 48.5845Z" fill="white"/>
<path d="M48.3113 60.8415C48.3113 62.5503 37.4988 66.3121 31.9674 67.9771C39.1054 68.711 45.8375 65.9723 48.3113 64.5113C49.3675 63.9336 51.4467 62.1463 51.3133 59.6182C51.1465 56.4582 47.8962 57.7486 47.3107 58.293C46.3768 59.1613 48.3113 59.6183 48.3113 60.8415Z" fill="white"/>
<path d="M47.0934 70.4265C46.9954 71.9943 38.1727 74.9788 33.8043 76.2444C39.6221 76.2444 49.7757 72.227 49.7268 69.8754C49.6778 67.5238 47.0322 68.2221 46.0523 68.7118C45.6237 69.1405 47.1914 68.8588 47.0934 70.4265Z" fill="white"/>
<path d="M41.2759 92.9633C37.776 93.9091 35.5601 91.3711 34.8456 89.8401C36.397 89.9217 39.2531 90.5291 41.2759 90.1465C43.5417 89.7178 44.3379 89.4116 45.8076 87.6968C46.4276 86.9735 46.0526 86.2883 46.0526 85.492C46.9712 85.4309 47.8324 85.8596 47.7673 86.9007C47.7023 87.9418 45.8076 91.7387 41.2759 92.9633Z" fill="white"/>
<path d="M45.0117 11.8806C33.5597 14.021 24.2117 6.59055 20.6801 1.34429C31.7524 8.3012 39.0101 5.94032 43.1745 3.67442C46.2365 2.69458 47.939 1.80047 52.0543 3.12326C56.1697 4.44605 57.3631 6.11686 57.3631 10.4079C58.653 15.3029 60.2047 25.669 48.7895 38.211C37.3742 50.753 18.353 44.825 10.6979 38.9459C30.2949 45.39 38.8298 39.6936 43.1745 36.683C53.6466 29.4263 59.2777 9.21426 45.0117 11.8806Z" fill="white"/>
<path d="M5.12507 0.73189C-5.89438 7.83159 3.41034 26.31 9.28942 34.1079C6.57443 27.351 2.81118 12.782 10.6979 11.8806C16.7186 11.1925 17.1473 15.0039 26.3142 19.4102C30.4623 21.4041 35.4595 19.0223 37.215 18.2466C33.4181 17.573 24.5628 14.3028 19.5166 6.61096C14.4704 -1.08083 7.88469 -0.497149 5.12507 0.73189Z" fill="white"/>
<path d="M8.39722 56.3148C8.39722 48.5441 8.8175 46.5866 7.07629 46.0527C7.07629 46.0527 6.07268 80.7082 6.69458 84.2992C7.31647 87.8903 9.86978 92.7761 13.4986 93.1821C18.0346 93.6897 19.3877 86.5447 20.1729 83.0057C20.7172 80.5523 21.9535 72.5444 23.7679 63.4923C25.2194 56.2506 26.4391 52.3731 27.558 51.3297C22.3269 52.2218 22.8073 56.8487 21.2462 63.0178C19.6851 69.1869 19.5431 87.7276 13.4986 88.6178C7.45405 89.508 8.39722 65.1555 8.39722 56.3148Z" fill="white"/>
</svg>
