<svg width="43" height="43" viewBox="0 0 43 43" fill="none" xmlns="http://www.w3.org/2000/svg">
<path d="M21.5 43C33.3741 43 43 33.3741 43 21.5C43 9.62588 33.3741 0 21.5 0C9.62588 0 0 9.62588 0 21.5C0 33.3741 9.62588 43 21.5 43Z" fill="#0D6DED"/>
<path d="M31.9296 12.3998C31.9126 12.3162 31.8742 12.2384 31.8182 12.1739C31.7623 12.1095 31.6907 12.0607 31.6103 12.0321C31.3077 11.9734 30.995 11.9955 30.7035 12.0961C30.7035 12.0961 10.5621 19.3466 9.40942 20.149C9.16356 20.3217 9.09012 20.424 9.03903 20.5391C8.84107 21.1113 9.46051 21.3639 9.46051 21.3639L14.6523 23.0582C14.7383 23.0792 14.8281 23.0792 14.9142 23.0582C16.0956 22.3101 26.7953 15.5455 27.4147 15.3185C27.5105 15.2898 27.584 15.3185 27.5648 15.3889C27.3158 16.2584 18.0209 24.5288 18.0209 24.5288C17.9983 24.5585 17.979 24.5907 17.9635 24.6247L17.4813 29.7813C17.4813 29.7813 17.277 31.3605 18.8543 29.7813C19.9687 28.6656 21.0447 27.7321 21.5843 27.2813C23.3692 28.5153 25.2914 29.8804 26.1184 30.5933C26.2582 30.7278 26.4234 30.833 26.6043 30.9027C26.7853 30.9724 26.9783 31.0053 27.1721 30.9993C27.9576 30.9705 28.1779 30.1042 28.1779 30.1042C28.1779 30.1042 31.8498 15.3122 31.9712 13.3301C31.9712 13.1383 31.9999 13.0104 31.9999 12.8793C32.0018 12.7168 31.9781 12.5549 31.9296 12.3998Z" fill="white"/>
</svg>
