<svg width="43" height="43" viewBox="0 0 43 43" fill="none" xmlns="http://www.w3.org/2000/svg">
<path d="M21.5 43C33.3741 43 43 33.3741 43 21.5C43 9.62588 33.3741 0 21.5 0C9.62588 0 0 9.62588 0 21.5C0 33.3741 9.62588 43 21.5 43Z" fill="#03D162"/>
<path fill-rule="evenodd" clip-rule="evenodd" d="M22.6401 33.4611H22.6348C20.4951 33.4604 18.3927 32.9235 16.5253 31.905L9.74805 33.6828L11.5618 27.058C10.443 25.1191 9.85427 22.9198 9.85523 20.6666C9.85804 13.6177 15.5932 7.88281 22.6399 7.88281C26.06 7.88429 29.2699 9.21569 31.6836 11.6322C34.0973 14.0487 35.4259 17.2607 35.4246 20.6767C35.4217 27.724 29.6888 33.4582 22.6401 33.4611ZM16.8373 29.5904L17.2253 29.8207C18.8568 30.7888 20.7269 31.3011 22.6337 31.3018H22.638C28.4948 31.3018 33.2616 26.5349 33.2639 20.6757C33.265 17.8364 32.1608 15.1667 30.1546 13.1582C28.1484 11.1496 25.4804 10.043 22.6422 10.042C16.7809 10.042 12.014 14.8084 12.0117 20.6671C12.0109 22.675 12.5727 24.6304 13.6364 26.3221L13.889 26.7242L12.8156 30.6454L16.8373 29.5904ZM28.642 23.4293C28.8648 23.5369 29.0153 23.6096 29.0795 23.7169C29.1594 23.8501 29.1594 24.4897 28.8933 25.236C28.627 25.9821 27.3508 26.6632 26.737 26.7548C26.1867 26.8371 25.4903 26.8714 24.725 26.6283C24.2611 26.4811 23.6661 26.2845 22.904 25.9554C19.9092 24.6622 17.8854 21.7597 17.5029 21.2112C17.4761 21.1727 17.4574 21.1458 17.4469 21.1319L17.4444 21.1284C17.2753 20.9029 16.1426 19.3915 16.1426 17.8274C16.1426 16.3559 16.8654 15.5847 17.1981 15.2297C17.2209 15.2053 17.2418 15.183 17.2606 15.1625C17.5534 14.8426 17.8995 14.7627 18.1124 14.7627C18.3254 14.7627 18.5386 14.7647 18.7247 14.774C18.7477 14.7752 18.7715 14.775 18.7962 14.7749C18.9824 14.7738 19.2145 14.7724 19.4434 15.3224C19.5315 15.534 19.6604 15.8478 19.7963 16.1788C20.0712 16.8479 20.3749 17.5873 20.4283 17.6943C20.5082 17.8542 20.5614 18.0406 20.455 18.2539C20.439 18.2859 20.4242 18.3161 20.4101 18.3449C20.3301 18.5082 20.2713 18.6283 20.1355 18.7868C20.0821 18.8491 20.027 18.9163 19.9718 18.9835C19.8619 19.1173 19.752 19.2511 19.6563 19.3465C19.4964 19.5058 19.33 19.6786 19.5163 19.9984C19.7026 20.3182 20.3437 21.3642 21.2934 22.2113C22.3142 23.1218 23.2014 23.5067 23.6511 23.7018C23.739 23.7399 23.8101 23.7707 23.8623 23.7968C24.1816 23.9568 24.368 23.93 24.5543 23.7169C24.7407 23.5037 25.3529 22.7841 25.5658 22.4643C25.7787 22.1446 25.9917 22.1979 26.2845 22.3044C26.5774 22.4112 28.1479 23.1839 28.4673 23.3437C28.5297 23.375 28.588 23.4031 28.642 23.4293Z" fill="#FDFDFD"/>
</svg>
